<?xml version="1.0" standalone="no"?>
<!DOCTYPE svg PUBLIC "-//W3C//DTD SVG 20010904//EN"
 "http://www.w3.org/TR/2001/REC-SVG-20010904/DTD/svg10.dtd">
<svg version="1.0" xmlns="http://www.w3.org/2000/svg"
 width="364.000000pt" height="364.000000pt" viewBox="0 0 364.000000 364.000000"
 preserveAspectRatio="xMidYMid meet">
<metadata>
Created by potrace 1.14, written by Peter Selinger 2001-2017
</metadata>
<g transform="translate(0.000000,364.000000) scale(0.100000,-0.100000)"
fill="#000000" stroke="none">
<path d="M1805 3629 c-27 -4 -65 -12 -82 -18 -18 -5 -33 -8 -33 -6 0 8 -143
-45 -210 -78 -182 -87 -259 -147 -337 -262 -57 -85 -76 -126 -113 -243 -26
-80 -39 -107 -59 -120 -14 -9 -31 -22 -38 -28 -7 -7 -41 -12 -77 -13 -179 -2
-283 -95 -423 -378 -67 -134 -69 -142 -57 -174 6 -19 22 -68 34 -109 12 -41
26 -84 30 -95 5 -11 32 -94 60 -185 28 -91 81 -257 117 -370 36 -113 66 -207
66 -210 -1 -3 7 -26 17 -51 10 -25 20 -58 23 -75 4 -28 27 -109 68 -249 66
-218 84 -258 149 -320 29 -27 30 -28 127 -22 95 5 122 9 164 22 11 4 35 8 52
10 174 19 157 20 222 -22 33 -21 81 -51 108 -66 26 -16 58 -45 72 -65 22 -34
85 -222 85 -256 0 -17 204 -163 293 -209 45 -24 70 -30 111 -29 66 1 159 24
254 64 55 23 73 35 78 54 13 50 78 78 124 54 56 -30 246 3 366 65 53 26 57 38
58 150 l1 103 -67 70 c-38 39 -68 74 -68 79 0 4 12 44 26 88 19 57 27 106 29
168 3 91 -8 135 -56 228 -15 30 -17 44 -9 58 14 27 29 30 70 16 47 -17 97 -10
142 20 68 45 130 124 142 180 7 34 9 113 3 135 -2 8 -8 28 -12 45 -5 16 -9 45
-10 65 -3 83 -42 137 -107 145 -52 7 -80 36 -130 135 -39 78 -59 106 -124 167
l-78 74 17 68 c10 38 21 98 24 133 2 34 11 72 18 83 7 11 40 31 74 45 60 24
62 27 77 76 18 62 20 196 5 281 -6 35 -13 73 -15 85 -6 33 -33 108 -54 146
-19 39 -100 86 -122 72 -23 -14 -39 0 -97 87 -88 131 -143 174 -291 227 -40
14 -97 37 -125 50 -51 24 -107 48 -117 50 -3 1 -9 4 -15 7 -5 4 -35 13 -65 22
-48 13 -92 19 -230 30 -19 2 -57 0 -85 -4z"/>
</g>
</svg>
